PathFileType	4	(X/Y/Z)	TVC_60_BWA01_walk_RCNL2025.trc
DataRate	CameraRate	NumFrames	NumMarkers	Units	OrigDataRate	OrigDataStartFrame	OrigNumFrames
100	100	7	27	mm	100	97	384
Frame#	Time	R_Shoulder			L_Shoulder			C7			J_Notch			R_Elbow			L_Elbow			R_Wrist			L_Wrist			R_Asis			L_Asis			R_Psis			L_Psis			Sacral			Thoracic			Sternum			R_Thigh_Lateral			R_Knee_Lateral			R_Shank_Lateral			R_Ankle_Lateral			R_Heel			R_Toe			L_Thigh_Lateral			L_Knee_Lateral			L_Shank_Lateral			L_Ankle_Lateral			L_Heel			L_Toe		
		X1	Y1	Z1	X2	Y2	Z2	X3	Y3	Z3	X4	Y4	Z4	X5	Y5	Z5	X6	Y6	Z6	X7	Y7	Z7	X8	Y8	Z8	X9	Y9	Z9	X10	Y10	Z10	X11	Y11	Z11	X12	Y12	Z12	X13	Y13	Z13	X14	Y14	Z14	X15	Y15	Z15	X16	Y16	Z16	X17	Y17	Z17	X18	Y18	Z18	X19	Y19	Z19	X20	Y20	Z20	X21	Y21	Z21	X22	Y22	Z22	X23	Y23	Z23	X24	Y24	Z24	X25	Y25	Z25	X26	Y26	Z26	X27	Y27	Z27
97	0.96000000	-301.650574	1314.303101	46.351868	-323.176758	1347.790161	-306.748108	-371.407745	1396.798828	-128.792801	-259.545837	1267.347656	-139.011490	-399.022491	994.075928	125.273804	-385.069794	1009.797913	-374.314301	-338.573181	767.046875	166.457542	-316.075333	790.660522	-430.075867	-272.768890	909.057068	-5.178829	-298.178467	905.926514	-285.923706	-456.346588	906.675964	-68.449112	-466.273743	904.697815	-178.836975	-461.310165	905.686890	-123.643044	-428.035583	1189.421265	-134.193237	-233.389755	1073.415161	-138.155273	-267.578949	595.684509	62.918537	-217.516556	444.341431	-17.795839	-245.158401	224.749771	3.257009	-287.715424	62.052467	-75.452484	-327.767151	58.854122	-126.853325	-158.359283	42.186203	-76.621292	-341.402802	619.876099	-348.514648	-326.396027	434.590149	-280.597534	-482.721863	326.202545	-298.390747	-636.504700	204.457962	-212.331833	-655.232178	237.960876	-162.676590	-581.275330	92.384735	-217.970825
98	0.97000000	-293.544159	1314.829590	46.863228	-314.757202	1348.429932	-306.175903	-363.152740	1397.590210	-128.188431	-251.423447	1267.981079	-138.384094	-387.608826	993.820129	126.493820	-377.548950	1010.539001	-373.228943	-324.110611	767.401764	166.398254	-309.864731	790.805969	-428.446716	-265.264038	909.747070	-4.140551	-290.484497	906.779968	-285.073334	-448.883087	907.470215	-67.764763	-458.684814	905.284729	-178.169571	-453.783951	906.377472	-122.967167	-420.092773	1190.297119	-133.534683	-225.697266	1073.936523	-137.420441	-262.528076	595.778870	63.536434	-214.725937	443.779816	-17.500319	-243.306488	224.258179	3.381965	-287.602936	62.068958	-75.488297	-327.676636	58.983253	-126.865044	-158.311600	42.122757	-76.609978	-330.004608	620.730652	-347.467712	-308.111053	436.339264	-279.996124	-464.248108	328.373505	-298.139008	-617.501282	205.996353	-212.811874	-636.591125	238.440308	-162.590729	-560.251648	95.439774	-220.852356
99	0.98000000	-285.423767	1315.346313	47.315472	-306.515472	1349.027466	-305.643707	-354.970398	1398.353027	-127.614494	-243.400635	1268.578857	-137.826355	-376.091492	993.567200	127.677811	-370.060791	1011.210449	-372.189819	-309.549484	767.787415	166.215057	-303.484680	790.962952	-426.877518	-257.844269	910.398926	-3.136910	-282.913391	907.674927	-284.267120	-441.516815	908.231689	-67.090057	-451.205902	905.876404	-177.505707	-446.361359	907.054047	-122.297882	-412.251282	1191.148682	-132.860611	-218.123718	1074.436523	-136.748047	-257.552582	595.893677	64.090340	-212.092102	443.240234	-17.233198	-241.627472	223.815369	3.479802	-287.497711	62.090893	-75.518845	-327.575836	59.112148	-126.876274	-158.261658	42.068253	-76.616814	-318.358246	621.711670	-346.448456	-289.848541	438.376282	-279.298798	-445.414917	330.283112	-297.975739	-597.722168	206.606888	-213.570343	-617.393005	238.023575	-162.908081	-538.153687	97.662666	-223.516769
100	0.99000000	-277.288086	1315.852539	47.713066	-298.446960	1349.582642	-305.147217	-346.859802	1399.081909	-127.068069	-235.473465	1269.138916	-137.333054	-364.472168	993.317383	128.819992	-362.609375	1011.810913	-371.194031	-294.901062	768.204437	165.907463	-296.934021	791.131348	-425.374222	-250.505737	911.015137	-2.165941	-275.439301	908.608337	-283.498199	-434.237457	908.956665	-66.434799	-443.820221	906.465637	-176.857452	-439.028839	907.711151	-121.646126	-404.506195	1191.970215	-132.173462	-210.656128	1074.917847	-136.132523	-252.662613	596.017822	64.580734	-209.602554	442.725830	-16.992538	-240.178940	223.420303	3.574125	-287.397308	62.114403	-75.549744	-327.468414	59.239933	-126.888100	-158.213593	42.023098	-76.636269	-306.322601	622.833496	-345.491730	-271.645447	440.672302	-278.509399	-426.221161	331.861633	-297.922211	-577.202026	206.265030	-214.621124	-597.659851	236.712891	-163.658829	-515.078918	99.010674	-225.924637
101	1.00000000	-269.136993	1316.346191	48.060555	-290.544525	1350.094849	-304.682434	-338.819336	1399.770874	-126.546585	-227.637024	1269.658691	-136.898529	-352.754028	993.070068	129.914810	-355.197632	1012.339172	-370.238892	-280.176086	768.652985	165.475784	-290.213531	791.310120	-423.942154	-243.244553	911.596985	-1.225520	-268.036865	909.574524	-282.760071	-427.034607	909.640686	-65.808777	-436.510681	907.043457	-176.236694	-431.772644	908.342072	-121.022736	-396.851715	1192.755493	-131.476639	-203.281174	1075.381348	-135.567871	-247.863785	596.141907	65.012260	-207.243988	442.238037	-16.775537	-238.983444	223.067581	3.684971	-287.298309	62.136158	-75.585495	-327.358643	59.366379	-126.900291	-158.170868	41.986019	-76.660927	-293.815674	624.118958	-344.626678	-253.541138	443.191895	-277.632568	-406.666290	333.041992	-297.992310	-555.974976	204.965759	-215.964600	-577.410583	234.514832	-164.851059	-491.101288	99.484512	-228.064590
102	1.01000000	-260.971802	1316.824097	48.362415	-282.798462	1350.562378	-304.245728	-330.846863	1400.414429	-126.047882	-219.885635	1270.134766	-136.516861	-340.941620	992.823914	130.957077	-347.827271	1012.793823	-369.321930	-265.384834	769.132751	164.921089	-283.325851	791.497040	-422.585922	-236.056961	912.144714	-0.313436	-260.681671	910.565674	-282.046783	-419.897949	910.278259	-65.221558	-429.260254	907.599915	-175.654816	-424.579102	908.939087	-120.438187	-389.281403	1193.498291	-130.774460	-195.985291	1075.826294	-135.048004	-243.156479	596.258606	65.392487	-205.001862	441.776581	-16.578808	-238.028137	222.749512	3.824259	-287.197601	62.154045	-75.629395	-327.250732	59.491859	-126.912498	-158.136093	41.954773	-76.683006	-280.820160	625.591248	-343.869293	-235.577515	445.894531	-276.674622	-386.753235	333.765472	-298.191742	-534.072632	202.722900	-217.588165	-556.659241	231.440659	-166.471741	-466.275360	99.122490	-229.949371
103	1.02000000	-252.795013	1317.281982	48.622963	-275.196808	1350.982666	-303.833862	-322.939575	1401.006348	-125.570305	-212.212875	1270.563354	-136.181976	-329.040802	992.576538	131.941971	-340.498596	1013.173279	-368.441132	-250.537277	769.643005	164.245255	-276.275215	791.688812	-421.309448	-228.939117	912.657349	0.572517	-253.350327	911.571472	-281.353119	-412.817352	910.863342	-64.682236	-422.052094	908.124023	-175.122452	-417.434723	909.493683	-119.902344	-381.788177	1194.191895	-130.072083	-188.755035	1076.250122	-134.566818	-238.536209	596.361694	65.730400	-202.860229	441.339447	-16.398706	-237.272766	222.458420	3.993944	-287.093262	62.167534	-75.683472	-327.148224	59.617287	-126.925041	-158.110916	41.926788	-76.695747	-267.381073	627.263794	-343.218079	-217.799164	448.735779	-275.643829	-366.490936	333.986633	-298.518524	-511.523346	199.567902	-219.467712	-535.413391	227.507660	-168.489044	-440.643402	97.991814	-231.608932
